<svg width="413" height="292" viewBox="0 0 413 292" fill="d10000" xmlns="http://www.w3.org/2000/svg">
<rect width="413" height="292" fill="#d10000"/>
<rect x="160" y="100" width="106" height="109" fill="d10000"/>
<path d="M48.6418 120.769C43.3168 114.423 44.1445 104.962 50.4907 99.6369L104.114 54.6418C110.46 49.3168 119.921 50.1445 125.246 56.4907L154.172 90.9627L77.5673 155.241L48.6418 120.769Z" fill="black"/>
<path d="M294.925 56.4907C300.25 50.1445 309.712 49.3168 316.058 54.6418L369.681 99.6369C376.027 104.962 376.855 114.423 371.53 120.769L342.604 155.241L266 90.9627L294.925 56.4907Z" fill="black"/>
<mask id="path-4-outside-1_0_1" maskUnits="userSpaceOnUse" x="95" y="90" width="231" height="202" fill="d10000">
<rect fill="d10000" x="95" y="90" width="231" height="202"/>
<path d="M105.719 100.182H167.153L209.412 203.165H211.543L253.801 100.182H315.236V282H266.94V176.886H265.52L225.037 280.58H195.918L155.435 176.176H154.014V282H105.719V100.182Z"/>
</mask>
<path d="M105.719 100.182H167.153L209.412 203.165H211.543L253.801 100.182H315.236V282H266.94V176.886H265.52L225.037 280.58H195.918L155.435 176.176H154.014V282H105.719V100.182Z" fill="black"/>
<path d="M105.719 100.182V90.1818H95.7188V100.182H105.719ZM167.153 100.182L176.405 96.3855L173.859 90.1818H167.153V100.182ZM209.412 203.165L200.161 206.961L202.706 213.165H209.412V203.165ZM211.543 203.165V213.165H218.248L220.794 206.961L211.543 203.165ZM253.801 100.182V90.1818H247.095L244.55 96.3855L253.801 100.182ZM315.236 100.182H325.236V90.1818H315.236V100.182ZM315.236 282V292H325.236V282H315.236ZM266.94 282H256.94V292H266.94V282ZM266.94 176.886H276.94V166.886H266.94V176.886ZM265.52 176.886V166.886H258.689L256.205 173.25L265.52 176.886ZM225.037 280.58V290.58H231.868L234.352 284.216L225.037 280.58ZM195.918 280.58L186.594 284.195L189.07 290.58H195.918V280.58ZM155.435 176.176L164.758 172.561L162.283 166.176H155.435V176.176ZM154.014 176.176V166.176H144.014V176.176H154.014ZM154.014 282V292H164.014V282H154.014ZM105.719 282H95.7188V292H105.719V282ZM105.719 100.182V110.182H167.153V100.182V90.1818H105.719V100.182ZM167.153 100.182L157.902 103.978L200.161 206.961L209.412 203.165L218.663 199.369L176.405 96.3855L167.153 100.182ZM209.412 203.165V213.165H211.543V203.165V193.165H209.412V203.165ZM211.543 203.165L220.794 206.961L263.053 103.978L253.801 100.182L244.55 96.3855L202.291 199.369L211.543 203.165ZM253.801 100.182V110.182H315.236V100.182V90.1818H253.801V100.182ZM315.236 100.182H305.236V282H315.236H325.236V100.182H315.236ZM315.236 282V272H266.94V282V292H315.236V282ZM266.94 282H276.94V176.886H266.94H256.94V282H266.94ZM266.94 176.886V166.886H265.52V176.886V186.886H266.94V176.886ZM265.52 176.886L256.205 173.25L215.722 276.943L225.037 280.58L234.352 284.216L274.835 180.523L265.52 176.886ZM225.037 280.58V270.58H195.918V280.58V290.58H225.037V280.58ZM195.918 280.58L205.241 276.964L164.758 172.561L155.435 176.176L146.111 179.791L186.594 284.195L195.918 280.58ZM155.435 176.176V166.176H154.014V176.176V186.176H155.435V176.176ZM154.014 176.176H144.014V282H154.014H164.014V176.176H154.014ZM154.014 282V272H105.719V282V292H154.014V282ZM105.719 282H115.719V100.182H105.719H95.7188V282H105.719Z" fill="white" mask="url(#path-4-outside-1_0_1)"/>
<line x1="158.07" y1="38.8766" x2="208.872" y2="87.9352" stroke="black" stroke-width="10" stroke-linecap="round"/>
<line x1="42.5365" y1="40.4112" x2="68.4328" y2="65.4189" stroke="black" stroke-width="10" stroke-linecap="round"/>
<line x1="259.872" y1="39.07" x2="209.07" y2="88.1286" stroke="black" stroke-width="10" stroke-linecap="round"/>
<line x1="375.914" y1="40.9453" x2="350.018" y2="65.953" stroke="black" stroke-width="10" stroke-linecap="round"/>
<rect x="109" y="3" width="89" height="40" rx="9" fill="d10000" stroke="black" stroke-width="6"/>
<rect x="3" y="3" width="89" height="40" rx="9" fill="d10000" stroke="black" stroke-width="6"/>
<rect x="321" y="3" width="89" height="40" rx="9" fill="d10000" stroke="black" stroke-width="6"/>
<rect x="215" y="3" width="89" height="40" rx="9" fill="d10000" stroke="black" stroke-width="6"/>
</svg>

